<svg width="170" height="41" viewBox="0 0 170 41" fill="none" xmlns="http://www.w3.org/2000/svg">
<path d="M21.6151 25.9018L28.2941 29.725L26.5217 22.5192L32.4225 17.671L24.652 17.0355L21.6151 10.25L18.5782 17.0355L10.8076 17.671L16.6977 22.5192L14.9361 29.725L21.6151 25.9018Z" fill="#FF9500"/>
<path d="M53.3079 25.9018L59.9869 29.725L58.2145 22.5192L64.1154 17.671L56.3448 17.0355L53.3079 10.25L50.271 17.0355L42.5005 17.671L48.3906 22.5192L46.6289 29.725L53.3079 25.9018Z" fill="#FF9500"/>
<path d="M85.0003 25.9018L91.6793 29.725L89.9069 22.5192L95.8078 17.671L88.0372 17.0355L85.0003 10.25L81.9634 17.0355L74.1929 17.671L80.0829 22.5192L78.3213 29.725L85.0003 25.9018Z" fill="#FF9500"/>
<path d="M116.693 25.9018L123.372 29.725L121.599 22.5192L127.5 17.671L119.73 17.0355L116.693 10.25L113.656 17.0355L105.885 17.671L111.775 22.5192L110.014 29.725L116.693 25.9018Z" fill="#FF9500"/>
<path d="M148.385 25.9018L155.064 29.725L153.292 22.5192L159.193 17.671L151.422 17.0355L148.385 10.25L145.348 17.0355L137.578 17.671L143.468 22.5192L141.706 29.725L148.385 25.9018Z" fill="#FF9500"/>
</svg>
