<svg width="32" height="28" viewBox="0 0 32 28" fill="none" xmlns="http://www.w3.org/2000/svg">
<path d="M5.6 27.5C3.8 27.5 2.53333 27.1667 1.8 26.5C1.13333 25.7667 0.8 24.5 0.8 22.7V16.8C0.8 13.1333 1.2 10 2 7.4C2.86667 4.79999 4.03333 2.33333 5.5 -2.86102e-06L11 1.7C10.4667 3.7 10.1 5.63333 9.9 7.5C9.76667 9.36666 9.7 11.3667 9.7 13.5C12.3 13.5 13.6 14.9 13.6 17.7L13.5 22.7C13.4333 24.5 13.0333 25.7667 12.3 26.5C11.5667 27.1667 10.3333 27.5 8.6 27.5H5.6ZM23.2 27.5C21.4 27.5 20.1333 27.1667 19.4 26.5C18.7333 25.7667 18.4 24.5 18.4 22.7V16.8C18.4 13.1333 18.8 10 19.6 7.4C20.4667 4.79999 21.6333 2.33333 23.1 -2.86102e-06L28.6 1.7C28.0667 3.7 27.7 5.63333 27.5 7.5C27.3667 9.36666 27.3 11.3667 27.3 13.5C29.9 13.5 31.2 14.9 31.2 17.7L31.1 22.7C31.0333 24.5 30.6333 25.7667 29.9 26.5C29.1667 27.1667 27.9333 27.5 26.2 27.5H23.2Z" fill="#0B7ACD"/>
</svg>
