<svg width="170" height="41" fill="none" xmlns="http://www.w3.org/2000/svg"><path d="M21.615 25.902l6.68 3.823-1.773-7.206 5.9-4.848-7.77-.636-3.037-6.785-3.037 6.785-7.77.636 5.89 4.848-1.762 7.206 6.68-3.823zm31.693 0l6.679 3.823-1.773-7.206 5.901-4.848-7.77-.636-3.037-6.785-3.037 6.785-7.77.636 5.89 4.848-1.762 7.206 6.679-3.823zm31.692 0l6.68 3.823-1.773-7.206 5.9-4.848-7.77-.636L85 10.25l-3.037 6.785-7.77.636 5.89 4.848-1.762 7.206 6.68-3.823zm31.693 0l6.679 3.823-1.773-7.206 5.901-4.848-7.77-.636-3.037-6.785-3.037 6.785-7.771.636 5.89 4.848-1.761 7.206 6.679-3.823zm31.692 0l6.679 3.823-1.772-7.206 5.901-4.848-7.771-.636-3.037-6.785-3.037 6.785-7.77.636 5.89 4.848-1.762 7.206 6.679-3.823z" fill="#FF9500"/></svg>