<svg width="32" height="28" fill="none" xmlns="http://www.w3.org/2000/svg"><path d="M5.6 27.5c-1.8 0-3.067-.333-3.8-1-.667-.733-1-2-1-3.8v-5.9c0-3.667.4-6.8 1.2-9.4A34.151 34.151 0 015.5 0L11 1.7c-.533 2-.9 3.933-1.1 5.8a84.454 84.454 0 00-.2 6c2.6 0 3.9 1.4 3.9 4.2l-.1 5c-.067 1.8-.467 3.067-1.2 3.8-.733.667-1.967 1-3.7 1h-3zm17.6 0c-1.8 0-3.067-.333-3.8-1-.667-.733-1-2-1-3.8v-5.9c0-3.667.4-6.8 1.2-9.4A34.151 34.151 0 0123.1 0l5.5 1.7c-.533 2-.9 3.933-1.1 5.8a84.472 84.472 0 00-.2 6c2.6 0 3.9 1.4 3.9 4.2l-.1 5c-.067 1.8-.467 3.067-1.2 3.8-.733.667-1.967 1-3.7 1h-3z" fill="#0B7ACD"/></svg>