<svg width="80" height="80" fill="none" xmlns="http://www.w3.org/2000/svg"><path d="M0 14C0 6.268 6.268 0 14 0h52c7.732 0 14 6.268 14 14v52c0 7.732-6.268 14-14 14H0V14z" fill="#0B7ACD" fill-opacity=".2"/><path d="M39.262 20.036a1.48 1.48 0 00-1.103-.444l-14.285.338a4.03 4.03 0 00-3.95 3.944l-.332 14.29a1.51 1.51 0 00.443 1.103L39.393 58.63a6.045 6.045 0 008.563 0L58.63 47.946a6.044 6.044 0 000-8.563L39.262 20.036zm-2.72 16.506a5.54 5.54 0 11-7.833-7.837 5.54 5.54 0 017.833 7.837z" fill="#0B7ACD"/></svg>