<svg width="104" height="31" fill="none" xmlns="http://www.w3.org/2000/svg"><path fill-rule="evenodd" clip-rule="evenodd" d="M40.614 7.264h.037c0 .27.077.587.12.849l1.5 9.533c.095.586.2 1.17.274 1.74l.203 1.306c.015.11.061.303.064.439h-4.397l.558-3.43c.1-.612 1.64-10.105 1.64-10.437zm-8.19 23.694h4.512l.823-5.41c.087-.543-.16-.455 1.073-.455h4.625l.45 2.919c.093.57.353 2.477.46 2.946h4.511l-.374-1.908c-.105-.652-.243-1.267-.362-1.92-.062-.342-.122-.628-.174-.95-.146-.913-.391-2.002-.553-2.929-.326-1.88-.788-3.988-1.082-5.805-.292-1.806-.797-3.993-1.09-5.798-.199-1.234-.53-2.66-.725-3.88-.142-.89-1.44-7.465-1.44-7.768h-4.701c-.145 0-.131.22-.161.379l-.095.485-.55 2.932c-.204 1.217-.503 2.608-.732 3.873l-1.473 7.775c-.511 2.592-.958 5.156-1.466 7.743-.252 1.284-.475 2.563-.733 3.87l-.556 2.927c-.06.31-.116.665-.186.974zm-22.822-.66H.01v.66h9.554c1.723 0 4.32.433 4.905-1.499.226-.744.137-2.16.137-3.123v-3.262c0-.998.08-2.396-.105-3.194-.174-.748-.52-1.276-1.041-1.77l-5.138-4.95c-.068-.071-.118-.13-.19-.194l-2.88-2.758c-.079-.074-.132-.136-.209-.214-.598-.614-.483-.244-.483-1.136V3.924h5.497V9.75h4.55V2.758c0-.605-.05-1.084-.24-1.503a1.849 1.849 0 00-.847-.88c-.842-.439-1.857-.336-3.084-.336-1.05 0-7.793-.06-8.476.055C.054.414.01 1.807.01 3.341c0 .867-.043 6.208.048 6.943.177 1.423.918 1.868 1.668 2.641.138.143.295.325.44.443l2.84 2.762c.093.084.134.098.228.194.154.156.28.291.434.448l.885.84c.15.12.288.282.424.422l2.635 2.544c.078.08.13.132.208.214.1.105.115.17.275.184v9.322h-.493zm57.738.659h2.73V2.484h6.861v11.343h-4.739c-.112 0-.414.493-.402.605l1.374 4.07c.064.2.109.359.182.552l1.107 3.255c.473 1.468.983 2.87 1.46 4.332l1.473 4.316h2.844l-5.194-14.8c1.26 0 2.776.264 3.83-.504.43-.313.757-.918.757-1.671V2.252c0-.623-.246-1.208-.559-1.526-.182-.185-.327-.338-.565-.47a2.099 2.099 0 00-.847-.219H67.34v30.92zM16.806 4.116h5.004v26.84h4.511V4.117h4.967V.037H16.806v4.079zm33.209 0h5.004v26.84h4.511V4.117h4.966V.037H50.015v4.079zM95.85 15.108c0 .143-.56 1.703-.65 1.977l-.844 2.437c-.058.18-.097.32-.164.492l-.338.974c-.359 1.116-.82 2.329-1.185 3.448l-1.506 4.4c-.062.19-.113.302-.171.484a9.863 9.863 0 01-.169.488c-.066.174-.107.336-.163.493-.108.308-.156.296-.156.656h2.692l1.748-5.511c.138-.422 2.215-6.897 2.232-7.114.098.074.112.204.157.345.041.13.084.259.132.408 1.105 3.39 2.153 6.892 3.26 10.294l.508 1.578H104c-.026-.327-1.121-3.505-1.246-3.89-.83-2.551-1.755-5.15-2.578-7.69-.207-.638-.44-1.278-.645-1.904-.193-.595-.682-1.923-.809-2.398-.055-.207.185-.72.26-.952.958-2.971 2.112-6.115 3.089-9.11l.332-.98c.226-.641.441-1.27.664-1.922.164-.481.63-1.711.63-2.074h-2.616c-.14 0-.215.408-.298.665l-.238.728c-.077.236-.147.493-.227.739l-.237.728-2.71 8.449c-.045.14-.059.27-.157.344-.004-.174-1.217-4.035-1.322-4.355L94.097 1.52c-.065-.242-.155-.47-.227-.738-.053-.195-.203-.546-.22-.746h-2.843l.602 1.908c.646 1.833 1.26 3.833 1.895 5.633L95.21 13.2c.051.156.104.277.162.455l.478 1.452zM84.362 30.957h2.73V.037h-2.73v30.92z" fill="#212121"/><path fill-rule="evenodd" clip-rule="evenodd" d="M8.275 30.298h1.327v-9.322H8.275v9.322zm-1.971 0H7.63V23.15H6.304v7.148zm-2.085 0h1.327v-5.05H4.219v5.05zm-2.085 0H3.46v-2.33H2.134v2.33zm-1.934 0h1.327v-.582H.2v.582z" fill="#0B7ACD"/></svg>