<svg width="80" height="80" fill="none" xmlns="http://www.w3.org/2000/svg"><path d="M0 14C0 6.268 6.268 0 14 0h52c7.732 0 14 6.268 14 14v52c0 7.732-6.268 14-14 14H0V14z" fill="#0B7ACD" fill-opacity=".2"/><path d="M20.281 34.744c20.273 0 31.098-5.037 36.586-9.21v2c0 .68.672 1.23 1.501 1.23.83 0 1.502-.55 1.502-1.23v-5.106c0-.022-.006-.042-.008-.064a1.034 1.034 0 00-.088-.355c-.017-.038-.033-.075-.056-.11a1.38 1.38 0 00-.15-.204 1.254 1.254 0 00-.203-.18c-.019-.015-.032-.032-.055-.045-.018-.01-.035-.017-.052-.028a1.608 1.608 0 00-.395-.17c-.046-.013-.092-.026-.14-.035a1.512 1.512 0 00-.141-.02 1.032 1.032 0 00-.153-.015c-.02 0-.04-.005-.063-.005h-6.82c-.83 0-1.502.551-1.502 1.232 0 .68.672 1.231 1.501 1.231h3.374c-5.029 3.868-15.17 8.622-34.642 8.622-.83 0-1.502.55-1.502 1.231 0 .68.675 1.23 1.506 1.23zm9.635 6.439h-9.635c-.83 0-1.502.551-1.502 1.231v11.638c0 .68.672 1.231 1.502 1.231h9.636c.828 0 1.501-.551 1.501-1.231V42.414c0-.68-.672-1.231-1.502-1.231zM60.54 29.548h-1.207c-.178 0-.345.03-.503.075l-.018.005a1.553 1.553 0 00-.547.284c-2.19 1.666-4.885 3.15-8.024 4.406-.014.006-.024.014-.038.02a1.54 1.54 0 00-.407.256 1.4 1.4 0 00-.065.067 1.05 1.05 0 00-.105.121.852.852 0 00-.053.08.977.977 0 00-.073.131c-.015.032-.024.064-.036.096a.948.948 0 00-.037.13c-.01.04-.012.082-.016.123-.002.027-.01.053-.01.08v18.63c0 .68.673 1.232 1.502 1.232h9.636c.83 0 1.502-.552 1.502-1.232V30.78c0-.68-.672-1.231-1.502-1.231zm-13.834 7.586a.926.926 0 00-.039-.137c-.007-.02-.009-.041-.018-.062-.006-.012-.015-.022-.02-.034-.02-.047-.048-.09-.074-.135-.02-.03-.037-.058-.058-.086a1.2 1.2 0 00-.099-.11 1.038 1.038 0 00-.08-.08c-.037-.033-.078-.062-.12-.092-.03-.021-.062-.044-.095-.063a1.33 1.33 0 00-.145-.073c-.034-.016-.066-.032-.102-.045a2.059 2.059 0 00-.276-.08 1.702 1.702 0 00-.157-.022c-.047-.005-.093-.01-.141-.011-.021-.001-.038-.005-.058-.005-.035 0-.065.006-.1.008a1.474 1.474 0 00-.311.044c-.025.006-.05.008-.074.014-2.89.805-6.055 1.455-9.41 1.933-.005 0-.009.002-.013.003a1.7 1.7 0 00-.217.05c-.024.007-.05.01-.073.018-.064.022-.126.05-.186.078-.025.013-.053.02-.076.034a1.208 1.208 0 00-.152.1c-.023.017-.05.031-.073.05a1.185 1.185 0 00-.123.119c-.021.02-.044.04-.063.062-.034.04-.061.084-.09.126-.017.027-.037.052-.052.08-.021.04-.034.081-.05.12-.015.038-.031.073-.041.11-.01.035-.012.071-.018.107-.008.047-.016.092-.017.14l-.002.017v14.742c0 .68.671 1.231 1.501 1.231h9.637c.829 0 1.502-.552 1.502-1.231V37.33c0-.025-.01-.049-.01-.075a.333.333 0 00-.008-.121z" fill="#0B7ACD"/></svg>