<svg width="50" height="20" fill="none" xmlns="http://www.w3.org/2000/svg"><rect width="50" height="20" rx="10" fill="#69B353"/><path d="M12.015 5.576c.352 0 .652.008.9.024.256.016.488.044.696.084.216.032.436.076.66.132l-.108.804c-.24-.024-.464-.044-.672-.06-.2-.016-.416-.028-.648-.036a24.492 24.492 0 00-.828-.012c-.536 0-.96.104-1.272.312-.312.208-.536.556-.672 1.044-.128.488-.192 1.152-.192 1.992 0 .84.064 1.504.192 1.992.136.488.36.836.672 1.044.312.208.736.312 1.272.312.512 0 .94-.008 1.284-.024.352-.024.696-.06 1.032-.108l.108.792c-.344.096-.7.164-1.068.204-.36.048-.812.072-1.356.072-.792 0-1.428-.136-1.908-.408-.472-.28-.816-.732-1.032-1.356-.208-.624-.312-1.464-.312-2.52s.104-1.896.312-2.52c.216-.624.56-1.072 1.032-1.344.48-.28 1.116-.42 1.908-.42zm4.828 2.58v1.74c0 .232-.02.456-.06.672h.816c.384 0 .692-.096.924-.288.232-.192.432-.468.6-.828.176-.36.36-.792.552-1.296h1.056a22.324 22.324 0 01-.6 1.464c-.184.4-.4.708-.648.924-.24.216-.568.348-.984.396v.036c.44.04.788.172 1.044.396.256.216.484.54.684.972.2.424.424.976.672 1.656h-1.068c-.24-.632-.452-1.14-.636-1.524-.184-.392-.396-.676-.636-.852-.232-.184-.552-.272-.96-.264h-.804c.032.2.048.388.048.564V14h-1.02V8.156h1.02zm7.85-.144c.673 0 1.209.1 1.609.3.4.2.688.528.864.984.184.448.276 1.044.276 1.788s-.092 1.344-.276 1.8c-.176.448-.464.772-.864.972-.4.2-.936.3-1.608.3s-1.212-.1-1.62-.3c-.4-.2-.692-.524-.876-.972-.176-.456-.264-1.056-.264-1.8s.088-1.34.264-1.788c.184-.456.476-.784.876-.984.408-.2.948-.3 1.62-.3zm0 .864c-.423 0-.76.068-1.007.204-.248.128-.424.352-.528.672-.104.32-.156.764-.156 1.332 0 .568.052 1.012.156 1.332.104.32.28.548.528.684.248.128.584.192 1.008.192.424 0 .756-.064.996-.192.248-.136.424-.364.528-.684.104-.32.156-.764.156-1.332 0-.568-.052-1.012-.156-1.332-.104-.32-.28-.544-.528-.672-.24-.136-.572-.204-.996-.204zm5.212-.72l.096.924c.32-.328.696-.588 1.128-.78a3.2 3.2 0 011.284-.288c.72 0 1.236.264 1.548.792.312.52.468 1.288.468 2.304 0 .752-.08 1.352-.24 1.8-.16.44-.404.756-.732.948-.328.192-.74.288-1.236.288a4.59 4.59 0 01-1.14-.144 3.978 3.978 0 01-1.032-.456c.016.2.028.392.036.576a7.5 7.5 0 010 .6v1.692h-1.008V8.156h.828zm2.184.744c-.32 0-.636.076-.948.228a6.212 6.212 0 00-1.056.672v3.108l.972.252c.288.064.588.096.9.096.344 0 .616-.06.816-.18.208-.12.36-.336.456-.648.096-.312.144-.752.144-1.32 0-.832-.1-1.408-.3-1.728-.192-.32-.52-.48-.984-.48zm6.456-.888c.672 0 1.208.1 1.608.3.4.2.688.528.864.984.184.448.276 1.044.276 1.788s-.092 1.344-.276 1.8c-.176.448-.464.772-.864.972-.4.2-.936.3-1.608.3s-1.212-.1-1.62-.3c-.4-.2-.692-.524-.876-.972-.176-.456-.264-1.056-.264-1.8s.088-1.34.264-1.788c.184-.456.476-.784.876-.984.408-.2.948-.3 1.62-.3zm0 .864c-.424 0-.76.068-1.008.204-.248.128-.424.352-.528.672-.104.32-.156.764-.156 1.332 0 .568.052 1.012.156 1.332.104.32.28.548.528.684.248.128.584.192 1.008.192.424 0 .756-.064.996-.192.248-.136.424-.364.528-.684.104-.32.156-.764.156-1.332 0-.568-.052-1.012-.156-1.332-.104-.32-.28-.544-.528-.672-.24-.136-.572-.204-.996-.204z" fill="#fff"/></svg>