<svg width="80" height="80" fill="none" xmlns="http://www.w3.org/2000/svg"><path d="M0 14C0 6.268 6.268 0 14 0h52c7.732 0 14 6.268 14 14v52c0 7.732-6.268 14-14 14H0V14z" fill="#0B7ACD" fill-opacity=".2"/><path d="M40 19.592c-11.293 0-20.408 9.115-20.408 20.408 0 11.292 9.115 20.408 20.408 20.408 11.292 0 20.408-9.116 20.408-20.408 0-11.293-9.116-20.408-20.408-20.408zm8.254 28.798c-.408.408-.907.59-1.451.59a1.986 1.986 0 01-1.452-.59l-7.528-7.528V28.617c0-1.134.907-2.041 2.04-2.041 1.135 0 2.042.907 2.042 2.04v10.568l6.349 6.349c.77.77.77 2.086 0 2.857z" fill="#0B7ACD"/></svg>