<svg width="569" height="408" fill="none" xmlns="http://www.w3.org/2000/svg"><path d="M417.467.236H.179v266.78h417.288V.236z" fill="#E6E6E6"/><path d="M405.534 33.696H12.11v217.536h393.424V33.696z" fill="#fff"/><path d="M417.288 0H0v17.697h417.288V0z" fill="#0B7ACD"/><path d="M13.175 12.328a3.283 3.283 0 003.286-3.28 3.283 3.283 0 00-3.286-3.28 3.283 3.283 0 00-3.286 3.28 3.283 3.283 0 003.286 3.28zm12.471 0a3.283 3.283 0 003.286-3.28 3.283 3.283 0 00-3.286-3.28 3.283 3.283 0 00-3.286 3.28 3.283 3.283 0 003.286 3.28zm12.472 0a3.283 3.283 0 003.286-3.28 3.283 3.283 0 00-3.286-3.28 3.283 3.283 0 00-3.287 3.28 3.283 3.283 0 003.287 3.28z" fill="#fff"/><path d="M137.464 51.59H60.517v83.335h76.947V51.59zm109.831 0h-76.947v83.335h76.947V51.59zm109.831 0h-76.948v83.335h76.948V51.59zm-219.662 98.418H60.517v83.335h76.947v-83.335zm109.831 0h-76.947v83.335h76.947v-83.335zm109.831 0h-76.948v83.335h76.948v-83.335z" fill="#E6E6E6"/><path d="M188.946 171.426l14.059-5.549 1.635 27.743s2.942 8.486 1.962 11.75c0 0 .653 5.548-.982 5.875-1.634.326-6.213.979-6.537.652-.323-.327-.326-1.306-.326-1.306s-3.27 2.285-3.597 4.896c0 0-13.732 4.243-14.059.326-.327-3.917 6.866-7.181 6.866-7.181l5.558-8.485-4.579-28.721zm29.755 0l14.057-5.549 1.635 27.743s2.942 8.486 1.962 11.75c0 0 .653 5.548-.982 5.875-1.635.326-6.213.979-6.537.652-.323-.327-.327-1.306-.327-1.306s-3.269 2.285-3.596 4.896c0 0-13.733 4.243-14.059.326-.327-3.917 6.865-7.181 6.865-7.181l5.559-8.485-4.577-28.721z" fill="#fff"/><path d="M220.074 64.293s-2.993 8.35.475 12.115l-2.892 9.92s10.274 30.768 7.339 35.066c0 0-10.959 5.47-32.879-1.954l8.904-34.48-1.272-14.554 1.761-6.838 3.914-.387s-2.348 8.79 1.957 10.158c4.305 1.368 8.505-9.939 8.505-9.939l4.188.893z" fill="#0B7ACD"/><path d="M81.824 118.195l3.778 1.543 18.031-23.655 5.666 27.769 3.778-.686c2.423-23.94 4.401-48.36 1.975-59.91l-13.995-.6-6.353 20.23L91.612 96.6l-9.788 21.595zm229.287-55.129s-5.156 7.155-4.904 10.043c.252 2.887 3.521 49.96 3.521 49.96l7.671.377-2.265-33.893 1.886-9.163 4.653 42.679 9.431.252-8.425-55.358-1.635-4.896h-9.933z" fill="#fff"/><path d="M340.251 178.334c-1.369-1.64-3.722-2.526-5.982-3.006.065-.204-6.872-1.636-6.99-1.341l-2.615-2.08-8.037 4.166-4.516-3.069-2.097.743c.085-.37-6.512.771-6.512.771-1.26.045-2.87.124-4.672.262-6.31.485-6.796 16.799-6.796 16.799a25.809 25.809 0 019.135-1.909l1.705 19.512c8.772-.751 17.972.123 27.508 2.261l4.471-15.338 10.414-4.043s-1.78-9.852-5.016-13.728z" fill="#0B7ACD"/><path d="M116.787 169.043c-1.128-1.351-3.066-2.082-4.928-2.477.055-.169-5.663-1.347-5.761-1.105l-2.155-1.713-6.62 3.432-3.721-2.528-1.728.612c.07-.304-5.366.636-5.366.636a95 95 0 00-3.85.216c-5.198.399-5.598 13.84-5.598 13.84a21.279 21.279 0 017.526-1.573l1.405 39.356c7.228-.619 14.808.102 22.663 1.863l3.684-35.916 8.581-3.331s-1.466-8.117-4.132-11.312z" fill="#fff"/><path d="M485.07 179.518h36.892v-19.706c0-4.883-1.943-9.567-5.403-13.02a18.46 18.46 0 00-13.043-5.394 18.46 18.46 0 00-13.043 5.394 18.394 18.394 0 00-5.403 13.02v19.706z" fill="#2F2E41"/><path d="M468.601 398.768h-7.935l-3.775-30.555h11.711l-.001 30.555z" fill="#FFB6B6"/><path d="M470.625 396.182h-15.628a9.967 9.967 0 00-7.041 2.911 9.934 9.934 0 00-2.917 7.029v.323h25.586v-10.263z" fill="#2F2E41"/><path d="M563.456 388.197l-6.91 3.894-18.335-24.752 10.198-5.747 15.047 26.605z" fill="#FFB6B6"/><path d="M563.944 384.951l-13.608 7.667a9.944 9.944 0 00-4.697 5.991 9.924 9.924 0 00.921 7.553l.16.281L569 393.887l-5.056-8.936z" fill="#2F2E41"/><path d="M512.743 261.362l.612 3.056s1.837 1.833.918 2.75c-.918.917-.612 5.196-.612 5.196.514 7.802 10.727 51.646 12.553 60.209 0 0 14.084 9.169 25.106 27.201 11.021 18.032 11.326 22.616 11.326 22.616l-12.244 5.197-30.614-36.981s-8.573-5.196-11.635-9.78c-3.062-4.584-22.047-51.958-22.047-51.958l-10.719 49.512s.613 18.032-2.143 29.646a124.24 124.24 0 00-3.061 22.311l-14.39-1.528s.918-43.399 2.449-47.984c0 0-6.43-52.874 6.43-73.962l10.363-27.58 10.15-3.9 27.558 25.979z" fill="#0B7ACD"/><path d="M503.706 146.216c-19.317.329-19.314 29.014 0 29.34 19.317-.329 19.315-29.014 0-29.34z" fill="#FFB8B8"/><path d="M488.839 160.126h3.283l.894-2.232-.447 2.232h17.957l-.582-4.67 4.365 4.67h4.354v-2.531a14.867 14.867 0 00-4.36-10.528 14.935 14.935 0 00-10.541-4.367 14.916 14.916 0 00-10.546 4.352 14.881 14.881 0 00-4.375 10.522v.021l-.002 2.531z" fill="#2F2E41"/><path d="M483.786 184.123l36.504.295-7.713 78.124s-42.691-2.249-42.717-15.256l3.999-11.56 9.927-51.603z" fill="#3F3D56"/><path d="M521.859 270.095a6.051 6.051 0 011.747-9.125l-1.586-13.753 8.137-3.001 1.967 19.454a6.083 6.083 0 01-2.28 7.755 6.11 6.11 0 01-7.985-1.33z" fill="#FFB6B6"/><path d="M515.49 191.148l4.803-6.701s3.288-.729 7.171 3.794c3.883 4.523 6.149 61.056 6.149 61.056l-14.239 3.231-8.415-40.058 4.531-21.322z" fill="#3F3D56"/><path d="M435.029 252.455l1.059 50.226 32.572 17.183 59.318-10.574 1.456-52.209-37.603-13.218-56.802 8.592z" fill="#fff"/><path d="M468.575 320.406l-33.001-17.409-1.075-50.987 57.382-8.679.123.043 37.961 13.343-1.479 53.01-59.911 10.679zm-31.974-18.041l32.144 16.956 58.725-10.468 1.434-51.408-37.123-13.049-56.223 8.504 1.043 49.465z" fill="#CACACA"/><path d="M467.933 266.073l-.127-.05-32.969-13.086.384-.964 32.842 13.034 61.3-8.44.143 1.029-61.573 8.477z" fill="#CACACA"/><path d="M468.518 265.533l-1.04.013.662 54.323 1.04-.012-.662-54.324zm-4.751-2.06l-11.885-4.809 57.213-9.101 11.884 4.809-57.212 9.101zm-28.533 3.552l-.411.954 13.783 5.924.412-.954-13.784-5.924z" fill="#CACACA"/><path d="M441.476 284.159l-.412.954 13.784 5.924.412-.953-13.784-5.925z" fill="#6C63FF"/><path d="M253.803 322.233l1.059 50.226 32.572 17.183 59.318-10.574 1.457-52.209-37.604-13.217-56.802 8.591z" fill="#fff"/><path d="M287.349 390.184l-33-17.408-1.076-50.988 57.383-8.679.122.043 37.961 13.343-1.478 53.01-59.912 10.679zm-31.973-18.041l32.143 16.956 58.725-10.468 1.434-51.407-37.123-13.049-56.222 8.503 1.043 49.465z" fill="#CACACA"/><path d="M286.708 335.851l-.128-.05-32.969-13.085.384-.965 32.842 13.034 61.301-8.44.142 1.029-61.572 8.477z" fill="#CACACA"/><path d="M287.292 335.312l-1.04.012.662 54.324 1.04-.013-.662-54.323zm-7.63-3.243l-9.005-3.627 57.212-9.1 9.005 3.627-57.212 9.1zm-25.653 4.735l-.412.954 13.784 5.924.411-.954-13.783-5.924z" fill="#CACACA"/><path d="M260.25 353.937l-.411.954 13.784 5.924.411-.954-13.784-5.924z" fill="#6C63FF"/><path d="M310.39 329.12l1.229 58.304 37.811 19.946 68.859-12.274 1.69-60.606-43.651-15.344-65.938 9.974z" fill="#0B7ACD"/><path d="M349.332 408l-38.309-20.209-1.248-59.188 66.612-10.075.142.05 44.066 15.489-1.716 61.536L349.332 408zm-37.117-20.943l37.314 19.683 68.17-12.151 1.665-59.676-43.094-15.148-65.265 9.871 1.21 57.421z" fill="#3F3D56"/><path d="M348.586 344.928l-.147-.058-38.272-15.19.445-1.12 38.125 15.131 71.16-9.798.165 1.194-71.476 9.841z" fill="#3F3D56"/><path d="M349.265 344.302l-1.207.014.768 63.061 1.208-.015-.769-63.06zm-8.245-3.736l-11.066-4.238 66.414-10.564 11.067 4.237-66.415 10.565zm-30.392 5.467l-.477 1.108 16.001 6.877.477-1.108-16.001-6.877z" fill="#3F3D56"/><path d="M317.874 365.924l-.478 1.107 16.001 6.877.478-1.107-16.001-6.877z" fill="#fff"/><path d="M453.497 260.76a6.06 6.06 0 003.393-6.56 6.046 6.046 0 00-1.016-2.421l7.393-11.714-6.035-6.22-10.208 16.688a6.084 6.084 0 00-1.313 7.983 6.1 6.1 0 003.465 2.599 6.118 6.118 0 004.321-.355z" fill="#FFB6B6"/><path d="M489.396 187.202l-5.297-3.484s-4.087.915-8.434 9.261c-4.347 8.346-21.876 45.661-21.876 45.661l7.205 7.301 19.223-29.274 9.179-29.465z" fill="#3F3D56"/></svg>