<svg width="642" height="430" fill="none" xmlns="http://www.w3.org/2000/svg"><g clip-path="url(#clip0_719_3317)"><path d="M511.438 190.294l1.906-15.273a20.627 20.627 0 0140.938 5.107l-1.906 15.272a2.772 2.772 0 01-3.092 2.406l-35.44-4.421a2.77 2.77 0 01-2.406-3.091z" fill="#2F2E41"/><path d="M528.414 194.85c8.352 0 15.123-6.77 15.123-15.12 0-8.351-6.771-15.121-15.123-15.121-8.353 0-15.124 6.77-15.124 15.121 0 8.35 6.771 15.12 15.124 15.12z" fill="#FFB8B8"/><path d="M508.349 175.64a16.334 16.334 0 0118.212-14.169l3.055.381a16.33 16.33 0 0114.172 18.208l-.038.306-6.457-.806-1.433-6.439-1.209 6.11-3.337-.416-.723-3.25-.61 3.083-21.67-2.703.038-.305z" fill="#2F2E41"/><path d="M454.445 233.667a6.977 6.977 0 001.92 2.329 6.977 6.977 0 005.745 1.32 6.967 6.967 0 002.745-1.256l13.737 8.045 6.926-7.153-19.558-11.089a7.003 7.003 0 00-11.515 7.804z" fill="#FFB8B8"/><path d="M499.465 248.123c-10.132 0-27.962-4.535-28.949-4.789l-.312-.079 2.806-14.205 27.233 5.378 14.795-20.83 16.986-1.726-.474.624c-.221.29-22.117 29.107-25.524 33.941-.86 1.22-3.316 1.686-6.561 1.686z" fill="#3F3D56"/><path d="M502.181 301.436l-.405-.194c-.086-.041-8.695-4.227-13.154-12.4-4.437-8.134 16.336-42.638 17.789-45.032l.021-10.957 7.473-20.172 9.531-5.385-8.183 19.088-13.072 75.052z" fill="#3F3D56"/><path d="M492.634 419.208l-9.108-.001-4.334-35.124 13.443.001-.001 35.124z" fill="#FFB8B8"/><path d="M494.957 428.034l-29.369-.001v-.371a11.43 11.43 0 0111.431-11.429h.001l17.937.001v11.8z" fill="#2F2E41"/><path d="M590.468 411.227l-8.655 2.835-15.058-32.029 12.775-4.184 10.938 33.378z" fill="#FFB8B8"/><path d="M595.425 418.893l-27.909 9.142-.116-.353a11.43 11.43 0 017.304-14.419v-.001l17.046-5.583 3.675 11.214zm-22.592-13.409l-25.965-43.338-21.919-46.302-19.724 40.9-7.836 52.973-27.479.381.108-.429 42.052-167.053 32.934 4.919-1.499 21.735.893 1.269c7.439 10.567 15.132 21.492 10.72 33.269l12.507 37.129 27.686 61.823-22.478 2.724z" fill="#2F2E41"/><path d="M513.574 278.821c-4.772 0-10.217-5.447-7.392-14.748l-.183-.133 6.785-29.968c-5.921-8.466 1.885-15.453 2.617-16.077l3.726-6.706 16.441-10.424 8.318 69.102-.123.118c-6.008 5.747-26.185 8.836-30.189 8.836z" fill="#0B7ACD"/><path d="M547.245 294.414a8.029 8.029 0 01-1.942-.205c-.64-.16-1.675-.974-3.274-6.182-6.36-20.7-13.868-82.985-8.413-89.079l.125-.14 8.956 1.492c.745-.549 4.651-3.276 8.256-2.802a5.476 5.476 0 013.744 2.213l.062.081 2.853 40.583 10.453 47.758-.25.113c-.609.277-13.661 6.168-20.57 6.168z" fill="#3F3D56"/><path d="M541.222 278.553a6.973 6.973 0 005.255-2.67 6.968 6.968 0 001.326-5.742l13.111-9.029-3.545-9.303-18.335 13.009a7.006 7.006 0 00-5.008 7.839 7.001 7.001 0 007.196 5.896z" fill="#FFB8B8"/><path d="M556.588 268.346l-11.679-8.563 16.416-22.38-12.598-22.226 5.637-16.113.364.694c.169.324 16.993 32.365 19.928 37.5 3.053 5.342-17.008 29.801-17.864 30.839l-.204.249z" fill="#3F3D56"/><path d="M293.895 369.076l-9.939-4.184-6.819-49.815h-90.798l-7.39 49.612-8.893 4.445a2.11 2.11 0 00.945 3.999h122.075a2.11 2.11 0 001.866-3.098 2.112 2.112 0 00-1.047-.959z" fill="#E6E6E6"/><path d="M455.25 321.705H9.224a8.833 8.833 0 01-8.817-8.835v-62.882h463.66v62.882a8.837 8.837 0 01-8.817 8.835z" fill="#CCC"/><path d="M464.533 279.708H0V10.65A10.661 10.661 0 0110.653 0H453.88a10.666 10.666 0 0110.653 10.65v269.058z" fill="#3F3D56"/><path d="M436.788 260.179H27.745a8.221 8.221 0 01-8.213-8.21V27.739a8.22 8.22 0 018.213-8.212h409.043A8.221 8.221 0 01445 27.738V251.97a8.218 8.218 0 01-8.212 8.21z" fill="#fff"/><path d="M346.983 373.653H117.135a1.065 1.065 0 01-1.048-.772 1.05 1.05 0 01.547-1.2c.143-.07.3-.107.459-.107h229.804a1.103 1.103 0 011.101.813 1.04 1.04 0 01-1.015 1.266z" fill="#CCC"/><path d="M432.421 55.78h-98.762v75.434h98.762V55.779z" fill="#F2F2F2"/><path d="M427.514 59.527h-88.947v67.939h88.947V59.527z" fill="#fff"/><path d="M384.602 109.921l.036-.001a23.717 23.717 0 0015.87-7.259 23.706 23.706 0 00.364-32.448 23.715 23.715 0 00-15.704-7.614.54.54 0 00-.538.32.527.527 0 00-.046.214l-.519 46.24a.544.544 0 00.537.548z" fill="#3F3D56"/><path d="M366.004 70.245a.699.699 0 01.49.21l15.922 16.279a.693.693 0 01.198.494l-.248 22.126a.684.684 0 01-.225.504.694.694 0 01-.525.182 23.87 23.87 0 01-21.757-27.765 23.87 23.87 0 015.614-11.794.704.704 0 01.531-.236z" fill="#E6E6E6"/><path d="M382.194 62.41a.699.699 0 01.69.704l-.224 19.964a.687.687 0 01-.436.637.695.695 0 01-.756-.16L367.574 69.35a.694.694 0 01-.131-.785.688.688 0 01.169-.224 23.922 23.922 0 0114.582-5.93zm-7.157 57.099a4.252 4.252 0 01-2.673 3.905 4.263 4.263 0 01-4.631-.975 4.26 4.26 0 01-.872-4.651 4.266 4.266 0 013.965-2.585 4.267 4.267 0 014.211 4.306z" fill="#0B7ACD"/><path d="M387.206 119.646a4.254 4.254 0 01-2.673 3.905 4.262 4.262 0 01-5.773-3.169 4.257 4.257 0 014.235-5.042 4.266 4.266 0 014.211 4.306z" fill="#3F3D56"/><path d="M399.375 119.782a4.257 4.257 0 01-5.137 4.119 4.252 4.252 0 01-3.309-3.383 4.26 4.26 0 014.235-5.042 4.266 4.266 0 014.211 4.306z" fill="#E6E6E6"/><path d="M431.382 143.086H332.62v75.435h98.762v-75.435z" fill="#F2F2F2"/><path d="M426.474 146.834h-88.947v67.938h88.947v-67.938z" fill="#fff"/><path d="M352.619 169.163a3.692 3.692 0 10.001-7.385 3.692 3.692 0 00-.001 7.385zm59.339-6.565a2.493 2.493 0 011.773.732 2.505 2.505 0 01.545 2.731 2.502 2.502 0 01-2.318 1.545h-38.842a2.503 2.503 0 01-1.771-4.275 2.502 2.502 0 011.771-.733h38.842zm0-.614h-38.842a3.12 3.12 0 00-1.195 5.999c.379.157.785.237 1.195.236h38.842a3.12 3.12 0 002.885-1.923 3.12 3.12 0 00-2.885-4.312z" fill="#3F3D56"/><path d="M396.631 168.219h-29.239a3.116 3.116 0 01-2.205-5.322 3.12 3.12 0 012.205-.913h29.239a3.118 3.118 0 110 6.235z" fill="#0B7ACD"/><path d="M352.619 184.496a3.692 3.692 0 10.001-7.385 3.692 3.692 0 00-.001 7.385zm59.339-6.566a2.508 2.508 0 011.774.732 2.505 2.505 0 01-1.774 4.276h-38.842a2.505 2.505 0 010-5.008h38.842zm0-.614h-38.842c-.827 0-1.62.329-2.205.913a3.122 3.122 0 000 4.409 3.118 3.118 0 002.205.913h38.842a3.118 3.118 0 100-6.235z" fill="#3F3D56"/><path d="M407.673 183.551h-40.282a3.115 3.115 0 01-3.118-3.117 3.119 3.119 0 013.118-3.118h40.282c.827 0 1.62.329 2.205.913a3.122 3.122 0 010 4.409 3.118 3.118 0 01-2.205.913z" fill="#0B7ACD"/><path d="M352.619 199.828a3.692 3.692 0 10.001-7.385 3.692 3.692 0 00-.001 7.385zm59.339-6.565a2.508 2.508 0 011.774.732 2.505 2.505 0 01-1.774 4.276h-38.842a2.505 2.505 0 010-5.008h38.842zm0-.614h-38.842c-.827 0-1.62.329-2.205.913a3.122 3.122 0 000 4.409 3.118 3.118 0 002.205.913h38.842a3.118 3.118 0 100-6.235z" fill="#3F3D56"/><path d="M383.749 198.884h-16.358a3.12 3.12 0 01-2.885-1.923 3.116 3.116 0 01.677-3.4 3.124 3.124 0 012.208-.912h16.358a3.118 3.118 0 010 6.235z" fill="#0B7ACD"/><path d="M310.789 69.125H34.866v141.379H310.79V69.125z" fill="#F2F2F2"/><path d="M301.591 76.15H44.063v127.33h257.528V76.15z" fill="#fff"/><path d="M269.652 184.054H81.92a.588.588 0 01-.588-.587v-89.96a.587.587 0 111.175 0v89.373h187.145a.585.585 0 01.588.587.587.587 0 01-.588.587z" fill="#3F3D56"/><path d="M122.03 177.593h-17.075a1.745 1.745 0 01-1.744-1.743v-23.533a1.745 1.745 0 011.744-1.744h17.075a1.745 1.745 0 011.744 1.744v23.533a1.743 1.743 0 01-1.744 1.743zm31.138 0h-17.075a1.748 1.748 0 01-1.744-1.744v-45.854a1.748 1.748 0 011.744-1.743h17.075a1.743 1.743 0 011.744 1.743v45.854a1.748 1.748 0 01-1.744 1.744zm31.139 0h-17.075a1.743 1.743 0 01-1.744-1.743v-23.533a1.745 1.745 0 011.744-1.744h17.075a1.75 1.75 0 011.744 1.744v23.533a1.748 1.748 0 01-1.744 1.743zm31.138 0H198.37a1.707 1.707 0 01-1.744-1.664v-54.823a1.706 1.706 0 011.744-1.664h17.075a1.707 1.707 0 011.744 1.664v54.823a1.704 1.704 0 01-1.744 1.664zm31.139 0h-17.075a1.743 1.743 0 01-1.744-1.743v-70.524a1.743 1.743 0 011.744-1.744h17.075a1.747 1.747 0 011.744 1.744v70.524a1.748 1.748 0 01-1.744 1.743z" fill="#0B7ACD"/><path d="M113.492 143.524a3.525 3.525 0 10.003-7.047 3.525 3.525 0 00-.003 7.047zm31.139-22.908a3.525 3.525 0 100-7.05 3.525 3.525 0 000 7.05zm31.138 22.908a3.525 3.525 0 100-7.05 3.525 3.525 0 000 7.05zm31.139-34.068a3.525 3.525 0 100-7.05 3.525 3.525 0 000 7.05zm31.139-12.923a3.525 3.525 0 100-7.05 3.525 3.525 0 000 7.05z" fill="#3F3D56"/><path d="M175.843 140.79l-31.212-23.374-30.787 23.054-.704-.939 31.491-23.583 31.064 23.263 30.869-33.774.124-.05 31.138-12.543.44 1.09-31.015 12.493-31.408 34.363z" fill="#3F3D56"/><path d="M641.319 430H381.807a.681.681 0 010-1.362h259.512a.678.678 0 01.681.681.679.679 0 01-.681.681z" fill="#CCC"/></g><defs><clipPath id="clip0_719_3317"><path fill="#fff" d="M0 0h642v430H0z"/></clipPath></defs></svg>