<svg width="50" height="20" viewBox="0 0 50 20" fill="none" xmlns="http://www.w3.org/2000/svg">
<rect width="50" height="20" rx="10" fill="#69B353"/>
<path d="M12.0153 5.576C12.3673 5.576 12.6673 5.584 12.9153 5.6C13.1713 5.616 13.4033 5.644 13.6113 5.684C13.8273 5.716 14.0473 5.76 14.2713 5.816L14.1633 6.62C13.9233 6.596 13.6993 6.576 13.4913 6.56C13.2913 6.544 13.0753 6.532 12.8433 6.524C12.6113 6.516 12.3353 6.512 12.0153 6.512C11.4793 6.512 11.0553 6.616 10.7433 6.824C10.4313 7.032 10.2073 7.38 10.0713 7.868C9.94325 8.356 9.87925 9.02 9.87925 9.86C9.87925 10.7 9.94325 11.364 10.0713 11.852C10.2073 12.34 10.4313 12.688 10.7433 12.896C11.0553 13.104 11.4793 13.208 12.0153 13.208C12.5273 13.208 12.9553 13.2 13.2993 13.184C13.6513 13.16 13.9953 13.124 14.3313 13.076L14.4393 13.868C14.0953 13.964 13.7393 14.032 13.3713 14.072C13.0113 14.12 12.5593 14.144 12.0153 14.144C11.2233 14.144 10.5873 14.008 10.1073 13.736C9.63525 13.456 9.29125 13.004 9.07525 12.38C8.86725 11.756 8.76325 10.916 8.76325 9.86C8.76325 8.804 8.86725 7.964 9.07525 7.34C9.29125 6.716 9.63525 6.268 10.1073 5.996C10.5873 5.716 11.2233 5.576 12.0153 5.576ZM16.843 8.156V9.896C16.843 10.128 16.823 10.352 16.783 10.568H17.599C17.983 10.568 18.291 10.472 18.523 10.28C18.755 10.088 18.955 9.812 19.123 9.452C19.299 9.092 19.483 8.66 19.675 8.156H20.731C20.515 8.732 20.315 9.22 20.131 9.62C19.947 10.02 19.731 10.328 19.483 10.544C19.243 10.76 18.915 10.892 18.499 10.94V10.976C18.939 11.016 19.287 11.148 19.543 11.372C19.799 11.588 20.027 11.912 20.227 12.344C20.427 12.768 20.651 13.32 20.899 14H19.831C19.591 13.368 19.379 12.86 19.195 12.476C19.011 12.084 18.799 11.8 18.559 11.624C18.327 11.44 18.007 11.352 17.599 11.36H16.795C16.827 11.56 16.843 11.748 16.843 11.924V14H15.823V8.156H16.843ZM24.6937 8.012C25.3657 8.012 25.9017 8.112 26.3017 8.312C26.7017 8.512 26.9897 8.84 27.1657 9.296C27.3497 9.744 27.4417 10.34 27.4417 11.084C27.4417 11.828 27.3497 12.428 27.1657 12.884C26.9897 13.332 26.7017 13.656 26.3017 13.856C25.9017 14.056 25.3657 14.156 24.6937 14.156C24.0217 14.156 23.4817 14.056 23.0737 13.856C22.6737 13.656 22.3817 13.332 22.1977 12.884C22.0217 12.428 21.9337 11.828 21.9337 11.084C21.9337 10.34 22.0217 9.744 22.1977 9.296C22.3817 8.84 22.6737 8.512 23.0737 8.312C23.4817 8.112 24.0217 8.012 24.6937 8.012ZM24.6937 8.876C24.2697 8.876 23.9337 8.944 23.6857 9.08C23.4377 9.208 23.2617 9.432 23.1577 9.752C23.0537 10.072 23.0017 10.516 23.0017 11.084C23.0017 11.652 23.0537 12.096 23.1577 12.416C23.2617 12.736 23.4377 12.964 23.6857 13.1C23.9337 13.228 24.2697 13.292 24.6937 13.292C25.1177 13.292 25.4497 13.228 25.6897 13.1C25.9377 12.964 26.1137 12.736 26.2177 12.416C26.3217 12.096 26.3737 11.652 26.3737 11.084C26.3737 10.516 26.3217 10.072 26.2177 9.752C26.1137 9.432 25.9377 9.208 25.6897 9.08C25.4497 8.944 25.1177 8.876 24.6937 8.876ZM29.9052 8.156L30.0012 9.08C30.3212 8.752 30.6972 8.492 31.1292 8.3C31.5692 8.108 31.9972 8.012 32.4132 8.012C33.1332 8.012 33.6492 8.276 33.9612 8.804C34.2732 9.324 34.4292 10.092 34.4292 11.108C34.4292 11.86 34.3492 12.46 34.1892 12.908C34.0292 13.348 33.7852 13.664 33.4572 13.856C33.1292 14.048 32.7172 14.144 32.2212 14.144C31.8372 14.144 31.4572 14.096 31.0812 14C30.7132 13.896 30.3692 13.744 30.0492 13.544C30.0652 13.744 30.0772 13.936 30.0852 14.12C30.0932 14.312 30.0932 14.512 30.0852 14.72V16.412H29.0772V8.156H29.9052ZM32.0892 8.9C31.7692 8.9 31.4532 8.976 31.1412 9.128C30.8372 9.272 30.4852 9.496 30.0852 9.8V12.908C30.4532 13.004 30.7772 13.088 31.0572 13.16C31.3452 13.224 31.6452 13.256 31.9572 13.256C32.3012 13.256 32.5732 13.196 32.7732 13.076C32.9812 12.956 33.1332 12.74 33.2292 12.428C33.3252 12.116 33.3732 11.676 33.3732 11.108C33.3732 10.276 33.2732 9.7 33.0732 9.38C32.8812 9.06 32.5532 8.9 32.0892 8.9ZM38.5453 8.012C39.2173 8.012 39.7533 8.112 40.1533 8.312C40.5533 8.512 40.8413 8.84 41.0173 9.296C41.2013 9.744 41.2933 10.34 41.2933 11.084C41.2933 11.828 41.2013 12.428 41.0173 12.884C40.8413 13.332 40.5533 13.656 40.1533 13.856C39.7533 14.056 39.2173 14.156 38.5453 14.156C37.8733 14.156 37.3333 14.056 36.9253 13.856C36.5253 13.656 36.2333 13.332 36.0493 12.884C35.8733 12.428 35.7853 11.828 35.7853 11.084C35.7853 10.34 35.8733 9.744 36.0493 9.296C36.2333 8.84 36.5253 8.512 36.9253 8.312C37.3333 8.112 37.8733 8.012 38.5453 8.012ZM38.5453 8.876C38.1213 8.876 37.7853 8.944 37.5373 9.08C37.2893 9.208 37.1133 9.432 37.0093 9.752C36.9053 10.072 36.8533 10.516 36.8533 11.084C36.8533 11.652 36.9053 12.096 37.0093 12.416C37.1133 12.736 37.2893 12.964 37.5373 13.1C37.7853 13.228 38.1213 13.292 38.5453 13.292C38.9693 13.292 39.3013 13.228 39.5413 13.1C39.7893 12.964 39.9653 12.736 40.0693 12.416C40.1733 12.096 40.2253 11.652 40.2253 11.084C40.2253 10.516 40.1733 10.072 40.0693 9.752C39.9653 9.432 39.7893 9.208 39.5413 9.08C39.3013 8.944 38.9693 8.876 38.5453 8.876Z" fill="white"/>
</svg>
